<?xml version="1.0" encoding="UTF-8"?>
<svg  width="575px" height="697px" viewBox="0 0 575 697" version="1.1" xmlns="http://www.w3.org/2000/svg" xmlns:xlink="http://www.w3.org/1999/xlink">
    <!-- Generator: Sketch 50.2 (55047) - http://www.bohemiancoding.com/sketch -->
    <title>Group</title>
    <desc>Created with Sketch.</desc>
    <defs>
        <polygon id="path-1" points="0.280310651 0.25511 69.2684024 0.25511 69.2684024 128.2 0.280310651 128.2"></polygon>
        <polygon id="path-3" points="0.000976331361 0.25528 75.6832249 0.25528 75.6832249 128.2 0.000976331361 128.2"></polygon>
        <polygon id="path-5" points="0.207159763 0.25511 69.1952515 0.25511 69.1952515 128.2 0.207159763 128.2"></polygon>
        <polygon id="path-7" points="0.197507396 0.25494 66.7495044 0.25494 66.7495044 128.2 0.197507396 128.2"></polygon>
        <polygon id="path-9" points="0 0.85 574.879216 0.85 574.879216 500.65 0 500.65"></polygon>
    </defs>
    <g id="Page-1" stroke="none" stroke-width="1" fill="none" fill-rule="evenodd">
        <g id="Artboard" transform="translate(-213.000000, -152.000000)">
            <g id="Group" transform="translate(213.000000, 152.000000)">
                <polygon id="Fill-1" fill="white" points="33 569 33 586.850814 55.2617028 586.850814 55.2617028 697 78.5363809 697 78.5363809 586.850814 101 586.850814 101 569"></polygon>
                <path d="M130.705039,569 L105,697 L128.276577,697 L132.727908,670.426165 L160.662855,670.426165 L165.519779,697 L189,697 L162.079882,569 L130.705039,569 Z M146.290638,591.517605 L157.424906,652.777736 L135.765607,652.777736 L146.290638,591.517605 Z" id="Fill-2" fill="white"></path>
                <g id="Group-22">
                    <g id="Group-5" transform="translate(201.739645, 568.800000)">
                        <mask id="mask-2" fill="white">
                            <use xlink:href="#path-1"></use>
                        </mask>
                        <g id="Clip-4"></g>
                        <path d="M45.9332692,0.25511 L69.2684024,0.25511 L69.2684024,108.12521 C69.2684024,121.50931 61.8937722,128.20051 47.1513166,128.20051 L22.3956953,128.20051 C7.65153846,128.20051 0.280310651,121.50931 0.280310651,108.12521 L0.280310651,0.25511 L23.6137426,0.25511 L23.6137426,104.88161 C23.6137426,107.04571 24.0186243,108.50091 24.8317899,109.24041 C25.6432544,109.98501 27.1300888,110.35731 29.2956953,110.35731 L40.0488757,110.35731 C42.3488757,110.35731 43.9054586,109.98501 44.7152219,109.24041 C45.5283876,108.50091 45.9332692,107.04571 45.9332692,104.88161 L45.9332692,0.25511 Z" id="Fill-3" fill="white" mask="url(#mask-2)"></path>
                    </g>
                    <g id="Group-8" transform="translate(291.902367, 568.800000)">
                        <mask id="mask-4" fill="white">
                            <use xlink:href="#path-3"></use>
                        </mask>
                        <g id="Clip-7"></g>
                        <path d="M23.3361095,18.09848 L23.3361095,61.08298 L40.1744231,61.08298 C42.3383284,61.08298 43.8302663,60.71408 44.6400296,59.96778 C45.4514941,59.22658 45.8563757,57.77308 45.8563757,55.61068 L45.8563757,23.57418 C45.8563757,21.41178 45.4514941,19.95828 44.6400296,19.21368 C43.8302663,18.47418 42.3383284,18.09848 40.1744231,18.09848 L23.3361095,18.09848 Z M23.3361095,78.31928 L23.3361095,128.20068 L0.000976331361,128.20068 L0.000976331361,0.25528 L47.0761243,0.25528 C61.8185799,0.25528 69.1915089,6.94478 69.1915089,20.32888 L69.1915089,58.24398 C69.1915089,69.33138 64.2512722,75.81858 54.3793047,77.71068 L75.6832249,128.20068 L50.5244231,128.20068 L31.0458728,78.31928 L23.3361095,78.31928 Z" id="Fill-6" fill="white" mask="url(#mask-4)"></path>
                    </g>
                    <g id="Group-11" transform="translate(380.363905, 568.800000)">
                        <mask id="mask-6" fill="white">
                            <use xlink:href="#path-5"></use>
                        </mask>
                        <g id="Clip-10"></g>
                        <path d="M45.8618195,0.25511 L69.1952515,0.25511 L69.1952515,108.12521 C69.1952515,121.50931 61.8223225,128.20051 47.0798669,128.20051 L22.3242456,128.20051 C7.57838757,128.20051 0.207159763,121.50931 0.207159763,108.12521 L0.207159763,0.25511 L23.5422929,0.25511 L23.5422929,104.88161 C23.5422929,107.04571 23.9471746,108.50091 24.7603402,109.24041 C25.5701036,109.98501 27.0569379,110.35731 29.2242456,110.35731 L39.977426,110.35731 C42.2757249,110.35731 43.8323077,109.98501 44.6437722,109.24041 C45.4569379,108.50091 45.8618195,107.04571 45.8618195,104.88161 L45.8618195,0.25511 Z" id="Fill-9" fill="white" mask="url(#mask-6)"></path>
                    </g>
                    <g id="Group-14" transform="translate(467.825444, 568.800000)">
                        <mask id="mask-8" fill="white">
                            <use xlink:href="#path-7"></use>
                        </mask>
                        <g id="Clip-13"></g>
                        <path d="M43.2136317,104.88144 L43.2136317,77.50804 C43.2136317,75.34734 42.8070488,73.89214 41.9955843,73.14924 C41.1841198,72.40804 39.6938831,72.03404 37.531679,72.03404 L21.0965459,72.03404 C7.16385355,72.03404 0.197507396,65.27654 0.197507396,51.75644 L0.197507396,20.33024 C0.197507396,6.94614 7.50238905,0.25494 22.1104512,0.25494 L44.4299778,0.25494 C59.0397411,0.25494 66.3446228,6.94614 66.3446228,20.33024 L66.3446228,38.17344 L42.8070488,38.17344 L42.8070488,23.57384 C42.8070488,21.41144 42.400466,19.95794 41.5890015,19.21334 C40.777537,18.47384 39.2873003,18.09814 37.1267973,18.09814 L29.4153328,18.09814 C27.1136317,18.09814 25.5604512,18.47384 24.7489867,19.21334 C23.9375222,19.95794 23.5309393,21.41144 23.5309393,23.57384 L23.5309393,49.32204 C23.5309393,51.48784 23.9375222,52.94134 24.7489867,53.68254 C25.5604512,54.42884 27.1136317,54.79774 29.4153328,54.79774 L45.4455843,54.79774 C59.6487648,54.79774 66.7495044,61.42264 66.7495044,74.67074 L66.7495044,108.12504 C66.7495044,121.50914 59.3748743,128.20034 44.6341198,128.20034 L22.7194749,128.20034 C7.97361686,128.20034 0.602389053,121.50914 0.602389053,108.12504 L0.602389053,90.48414 L23.9375222,90.48414 L23.9375222,104.88144 C23.9375222,107.04554 24.3424038,108.50074 25.1555695,109.24024 C25.9653328,109.98484 27.5185133,110.35714 29.8219157,110.35714 L37.531679,110.35714 C39.6938831,110.35714 41.1841198,109.98484 41.9955843,109.24024 C42.8070488,108.50074 43.2136317,107.04554 43.2136317,104.88144" id="Fill-12" fill="white" mask="url(#mask-8)"></path>
                    </g>
                    <polygon id="Fill-15" fill="white" points="403.545547 311.69432 403.545547 443.53102 490.867293 286.44932 428.808121 286.44932"></polygon>
                    <polygon id="Fill-17" fill="white" points="84.0120932 286.45 171.333839 443.53 171.333839 311.695 146.071265 286.45"></polygon>
                    <g id="Group-21">
                        <mask id="mask-10" fill="white">
                            <use xlink:href="#path-9"></use>
                        </mask>
                        <g id="Clip-20"></g>
                        <polygon id="Fill-19" fill="white" mask="url(#mask-10)" points="457.132825 0.85 474.995251 107.95 367.820695 107.95 207.058861 107.95 99.8843047 107.95 117.746731 0.85 -0.000680473373 135.3251 64.1594527 250.75 153.471583 250.75 160.871731 250.75 207.058861 296.905 207.058861 304.3 207.058861 464.95 207.058861 500.65 367.820695 500.65 367.820695 464.95 367.820695 304.3 367.820695 296.905 414.007825 250.75 421.407973 250.75 510.720104 250.75 574.880237 135.3251"></polygon>
                    </g>
                </g>
            </g>
        </g>
    </g>
</svg>
